# AST/ASF file generated using VICON BodyLanguage
# -----------------------------------------------
:version 1.10
:name VICON
:units
  mass 1.0
  length 0.45
  angle deg
:documentation
   .ast/.asf automatically generated from VICON data using
   VICON BodyBuilder and BodyLanguage model FoxedUp or BRILLIANT.MOD
:root
   order TX TY TZ RX RY RZ
   axis XYZ
   position 0 0 0  
   orientation 0 0 0 
:bonedata
  begin
     id 1 
     name lhipjoint
     direction 0.710087 -0.641647 0.289942 
     length 2.79038 
     axis 0 0 0  XYZ
  end
  begin
     id 2 
     name lfemur
     direction 0.34202 -0.939693 0  
     length 7.2706  
     axis 0 0 20  XYZ
    dof rx ry rz
    limits (-160.0 20.0)
           (-70.0 70.0)
           (-60.0 70.0)
  end
  begin
     id 3 
     name ltibia
     direction 0.34202 -0.939693 0   
     length 7.86328   
     axis 0 0 20   XYZ
    dof rx
    limits (-10.0 170.0)
  end
  begin
     id 4 
     name lfoot
     direction 0.0541246 -0.148706 0.987399   
     length 2.37542   
     axis -90 7.62852e-016 20   XYZ
    dof rx rz
    limits (-45.0 90.0)
           (-70.0 20.0)
  end
  begin
     id 5 
     name ltoes
     direction 1.53554e-011 -4.21866e-011 1   
     length 1.19593   
     axis -90 7.62852e-016 20   XYZ
    dof rx
    limits (-90.0 20.0)
  end
  begin
     id 6 
     name rhipjoint
     direction -0.675762 -0.671724 0.303533   
     length 2.66544  
     axis 0 0 0  XYZ 
  end
  begin
     id 7 
     name rfemur
     direction -0.34202 -0.939693 0   
     length 8.11844   
     axis 0 0 -20   XYZ
    dof rx ry rz
    limits (-160.0 20.0)
           (-70.0 70.0)
           (-70.0 60.0)
  end
  begin
     id 8 
     name rtibia
     direction -0.34202 -0.939693 0   
     length 7.97082   
     axis 0 0 -20   XYZ
    dof rx
    limits (-10.0 170.0)
 end
 begin
     id 9 
     name rfoot
     direction -0.0726228 -0.199474 0.977208   
     length 2.19677  
     axis -90 -7.62852e-016 -20   XYZ
    dof rx rz
    limits (-45.0 90.0)
           (-20.0 70.0)
  end
  begin
     id 10 
     name rtoes
     direction -1.53508e-011 -4.21913e-011 1   
     length 1.10438   
     axis -90 -7.62852e-016 -20   XYZ
    dof rx
    limits (-90.0 20.0)
  end
  begin
     id 11 
     name lowerback
     direction -0.00404436 0.999673 -0.0252643   
     length 2.03972   
     axis 0 0 0   XYZ
    dof rx ry rz
    limits (-20.0 45.0)
           (-30.0 30.0)
           (-30.0 30.0)
  end
  begin
     id 12 
     name upperback
     direction 0.00744643 0.999969 0.00242763   
     length 2.04273   
     axis 0 0 0   XYZ
    dof rx ry rz
    limits (-20.0 45.0)
           (-30.0 30.0)
           (-30.0 30.0)
  end
  begin
     id 13 
     name thorax
     direction 0.00846113 0.999862 0.0143204   
     length 2.03752   
     axis 0 0 0   XYZ
    dof rx ry rz
    limits (-20.0 45.0)
           (-30.0 30.0)
           (-30.0 30.0)
  end
  begin
     id 14 
     name lowerneck
     direction 0.0328213 0.990857 0.130862   
     length 1.37497   
     axis 0 0 0   XYZ
    dof rx ry rz
    limits (-20.0 45.0)
           (-30.0 30.0)
           (-30.0 30.0)
  end
  begin
     id 15 
     name upperneck
     direction -0.0302832 0.999496 0.00956452   
     length 1.35926   
     axis 0 0 0   XYZ
    dof rx ry rz
    limits (-20.0 45.0)
           (-30.0 30.0)
           (-30.0 30.0)
  end
  begin
     id 16
     name head
     direction -0.0130455 0.999856 -0.0108809  
     length 1.44454  
     axis 0 0 0   XYZ
    dof rx ry rz
    limits (-20.0 45.0)
           (-30.0 30.0)
           (-30.0 30.0)
  end
  begin
     id 17 
     name lclavicle
     direction 0.952957 0.278766 0.119006  
     length 3.10112  
     axis 0 0 0   XYZ
    dof ry rz
    limits (-20.0 10.0)
           (0.0 20.0)
  end
  begin
     id 18 
     name lhumerus
     direction 1 -4.48972e-011 -1.63238e-028   
     length 5.82845   
     axis -180 -30 -90   XYZ
    dof rx ry rz
    limits (-60.0 90.0)
           (-90.0 90.0)
           (-90.0 90.0)
  end
  begin
     id 19
     name lradius
     direction 1 -4.48959e-011 1.45401e-026   
     length 3.49691   
     axis -180 -30 -90   XYZ
    dof rx
    limits (-10.0 170.0)
  end
  begin
     id 20
     name lwrist
     direction 1 -4.48945e-011 2.98015e-026   
     length 1.74845   
     axis -1.7599e-014 90 90   XYZ
    dof ry
    limits (-180.0 0.0)
 end
  begin
     id 21 
     name lhand
     direction 1 -4.4902e-011 5.9603e-026   
     length 0.674998   
     axis -3.80318e-014 90 90   XYZ
    dof rx rz
    limits (-90.0 90.0)
           (-45.0 45.0)
  end
  begin
     id 22 
     name lfingers
     direction 1 -4.48979e-011 1.19206e-025   
     length 0.544201   
     axis -7.60636e-014 90 90   XYZ
    dof rx
    limits (0.0 90.0)
  end
  begin
     id 23
     name lthumb
     direction 0.707107 -6.34941e-011 0.707107   
     length 0.781367   
     axis -90 45 2.85299e-015   XYZ
    dof rx rz
    limits (-45.0 45.0)
           (-45.0 45.0)
  end
  begin
     id 24 
     name rclavicle
     direction -0.967632 0.241887 0.0719654   
     length 3.53012  
     axis 0 0 0   XYZ 
    dof ry rz
    limits (-10.0 20.0)
           (-20.0 0.0)
  end
  begin
     id 25 
     name rhumerus
     direction -1 -4.4897e-011 6.87619e-028  
     length 5.45859   
     axis -180 30 90   XYZ
    dof rx ry rz
    limits (-90.0 60.0)
           (-90.0 90.0)
           (-90.0 90.0)
  end
  begin
     id 26 
     name rradius
     direction -1 -4.48967e-011 1.68055e-026   
     length 3.58491   
     axis -180 30 90   XYZ
    dof rx
    limits (-10.0 170.0)
  end
  begin
     id 27 
     name rwrist
     direction -1 -4.48976e-011 2.98015e-026   
     length 1.79245   
     axis -1.7599e-014 -90 -90   XYZ
    dof ry
    limits (-180.0 0.0)
  end
  begin
     id 28
     name rhand
     direction -1 -4.48996e-011 5.9603e-026   
     length 0.683735   
     axis -3.80318e-014 -90 -90   XYZ
    dof rx rz
    limits (-90.0 90.0)
           (-45.0 45.0)
  end
  begin
     id 29
     name rfingers
     direction -1 -4.48924e-011 1.19206e-025   
     length 0.551245   
     axis -7.60636e-014 -90 -90   XYZ
    dof rx
    limits (0.0 90.0)
  end
  begin
     id 30
     name rthumb
     direction -0.707107 -6.3492e-011 0.707107   
     length 0.791481   
     axis -90 -45 -2.85299e-015   XYZ
    dof rx rz
    limits (-45.0 45.0)
           (-45.0 45.0)
  end
:hierarchy
  begin
    root lhipjoint rhipjoint lowerback
    lhipjoint lfemur
    lfemur ltibia
    ltibia lfoot
    lfoot ltoes
    rhipjoint rfemur
    rfemur rtibia
    rtibia rfoot
    rfoot rtoes
    lowerback upperback
    upperback thorax
    thorax lowerneck lclavicle rclavicle
    lowerneck upperneck
    upperneck head
    lclavicle lhumerus
    lhumerus lradius
    lradius lwrist
    lwrist lhand lthumb
    lhand lfingers
    rclavicle rhumerus
    rhumerus rradius
    rradius rwrist
    rwrist rhand rthumb
    rhand rfingers
  end

#!OML:ASF F:\VICON\USERDATA\INSTALL\rory3\rory3.ASF
:FULLY-SPECIFIED
:DEGREES
41
root -4.24448 18.1154 19.4153 11.625 -41.9956 -22.0819
lowerback 6.95521 1.2532 6.06484
upperback -5.13382 2.07326 -3.13505
thorax -9.07608 0.490414 -7.09836
lowerneck -13.5971 -5.34072 3.22263
upperneck -10.1827 -7.59392 1.95613
head -1.01891 -3.96106 -0.136152
rclavicle -3.97569e-016 -9.54166e-015
rhumerus 58.7532 -49.7987 -31.4495
rradius 28.6963
rwrist -37.6177
rhand -14.3011 47.2124
rfingers 7.12502
rthumb 11.8388 17.5671
lclavicle -3.97569e-016 -9.54166e-015
lhumerus -36.6148 -3.77739 38.1537
lradius 52.5976
lwrist 32.4992
lhand 175.103 64.2784
lfingers 7.12502
lthumb -159.108 35.3834
rfemur 0.572207 -3.7148 30.7942
rtibia 44.4245
rfoot 4.45151 0.700592
rtoes -26.0704
lfemur -9.27795 -15.1814 -3.0578
ltibia 31.8863
lfoot -4.74476 -12.3443
ltoes 2.05638
42
root -4.23728 18.1257 19.4107 11.3601 -42.5056 -22.3536
lowerback 6.8747 1.27711 6.04145
upperback -4.85624 2.09494 -3.16158
thorax -8.71845 0.527796 -7.10106
lowerneck -14.2273 -5.45833 3.1868
upperneck -9.70951 -7.77339 2.01116
head -0.771312 -4.03808 -0.149278
rclavicle -4.53229e-014 3.81667e-014
rhumerus 55.9289 -49.1996 -28.2643
rradius 29.0701
rwrist -38.0557
rhand -13.5491 47.2049
rfingers 7.12502
rthumb 12.5639 17.6026
lclavicle -4.53229e-014 3.81667e-014
lhumerus -36.6215 -3.50428 37.9608
lradius 51.6688
lwrist 32.3387
lhand 175.067 64.4743
lfingers 7.12502
lthumb -159.142 35.5755
rfemur 0.664022 -3.79678 30.5439
rtibia 44.9534
rfoot 5.24287 1.51082
rtoes -28.731
lfemur -8.48084 -15.3837 -2.94993
ltibia 31.5654
lfoot -3.99652 -12.8678
ltoes 1.28477
43
root -4.22327 18.1302 19.3963 11.0912 -43.0605 -22.4863
lowerback 6.85074 1.36116 5.86492
upperback -4.5737 2.18248 -3.20705
thorax -8.38212 0.604711 -7.04716
lowerneck -14.7173 -5.52454 2.99119
upperneck -9.42064 -7.84979 2.25193
head -0.588639 -4.06203 -0.0704441
rclavicle -7.07673e-014 0
rhumerus 57.4382 -49.1888 -30.2471
rradius 28.3705
rwrist -35.1317
rhand -12.8929 47.7884
rfingers 7.12502
rthumb 13.1964 18.226
lclavicle -7.07673e-014 0
lhumerus -36.3144 -3.36225 37.8552
lradius 50.5848
lwrist 32.4674
lhand 172.325 66.0464
lfingers 7.12502
lthumb -161.778 36.8799
rfemur 0.634848 -3.7533 30.1576
rtibia 45.5573
rfoot 6.33491 1.50795
rtoes -24.8117
lfemur -7.83713 -15.7894 -2.8826
ltibia 31.2299
lfoot -4.52329 -13.5787
ltoes -5.16537
44
root -4.19654 18.1264 19.3745 10.7724 -43.5616 -22.2859
lowerback 6.95693 1.40955 5.41936
upperback -4.57369 2.20996 -3.1325
thorax -8.45302 0.643831 -6.7187
lowerneck -14.9324 -5.63578 2.67788
upperneck -9.00287 -7.9653 2.09339
head -0.418234 -4.10084 -0.0911459
rclavicle 4.45278e-014 -9.54166e-015
rhumerus 55.115 -48.3171 -27.6871
rradius 28.6587
rwrist -35.2423
rhand -12.6964 48.1489
rfingers 7.12502
rthumb 13.3858 18.5989
lclavicle 4.45278e-014 -9.54166e-015
lhumerus -36.5556 -3.66152 38.0419
lradius 49.858
lwrist 32.3537
lhand 173.626 65.5956
lfingers 7.12502
lthumb -160.527 36.5507
rfemur 0.483897 -3.23743 29.6171
rtibia 46.2613
rfoot 7.08435 0.605507
rtoes -13.0041
lfemur -7.42966 -16.0087 -3.03824
ltibia 30.8963
lfoot -4.31499 -14.6351
ltoes -4.2327
45
root -4.16699 18.1032 19.3482 10.0282 -44.0172 -21.6299
lowerback 7.15978 1.46926 4.75783
upperback -4.46572 2.21748 -3.2248
thorax -8.46704 0.685192 -6.44628
lowerneck -15.1597 -5.70664 2.67161
upperneck -8.64499 -8.07521 1.75554
head -0.283555 -4.15001 -0.214062
rclavicle 8.18993e-014 1.90833e-014
rhumerus 54.1648 -47.6975 -27.1122
rradius 28.6644
rwrist -34.3155
rhand -13.0636 48.4547
rfingers 7.12502
rthumb 13.0319 18.8818
lclavicle 8.18993e-014 1.90833e-014
lhumerus -36.5547 -4.1249 38.2652
lradius 49.3679
lwrist 32.1534
lhand 175.187 64.8491
lfingers 7.12502
lthumb -159.026 35.9631
rfemur 0.409627 -2.87293 28.7503
rtibia 46.9309
rfoot 7.94404 -0.550198
rtoes 1.35216
lfemur -6.98827 -15.7053 -3.64242
ltibia 30.7073
lfoot -4.04908 -15.7368
ltoes -0.399587
46
root -4.13598 18.0585 19.323 9.71572 -44.3405 -21.598
lowerback 7.29457 1.44057 4.47401
upperback -4.29442 2.16703 -3.05704
thorax -8.37928 0.691273 -6.09485
lowerneck -14.6137 -5.89073 2.09207
upperneck -8.89439 -8.21035 2.03322
head -0.413635 -4.20553 -0.018725
rclavicle -2.94201e-014 3.18055e-014
rhumerus 54.3163 -47.2463 -27.9006
rradius 28.7067
rwrist -33.2896
rhand -13.054 48.7098
rfingers 7.12502
rthumb 13.0412 19.1375
lclavicle -2.94201e-014 3.18055e-014
lhumerus -36.484 -4.25645 38.5323
lradius 48.8845
lwrist 31.5977
lhand 175.387 64.5752
lfingers 7.12502
lthumb -158.834 35.7106
rfemur 0.20489 -3.08742 28.3229
rtibia 47.5896
rfoot 9.09877 -0.657955
rtoes 4.84864
lfemur -6.70252 -14.7745 -3.72072
ltibia 30.7585
lfoot -3.65695 -16.9347
ltoes 4.5681
47
root -4.1028 17.9972 19.2999 9.73398 -44.5997 -21.9833
lowerback 7.41887 1.4021 4.57424
upperback -4.07551 2.15379 -2.79799
thorax -8.22113 0.700322 -5.8678
lowerneck -14.3021 -5.9811 1.76469
upperneck -9.04491 -8.27911 1.96218
head -0.499284 -4.23513 0.0226909
rclavicle -4.21423e-014 1.59028e-014
rhumerus 52.6699 -46.7021 -26.6579
rradius 29.3391
rwrist -34.0832
rhand -13.3571 48.8078
rfingers 7.12502
rthumb 12.749 19.217
lclavicle -4.21423e-014 1.59028e-014
lhumerus -36.2773 -4.23618 38.882
lradius 48.5163
lwrist 31.0908
lhand 175.641 64.4561
lfingers 7.12502
lthumb -158.591 35.619
rfemur -0.00617162 -3.68265 28.1871
rtibia 48.135
rfoot 10.1818 0.435361
rtoes -1.08754
lfemur -6.57419 -13.864 -3.49566
ltibia 31.1138
lfoot -4.13433 -17.9863
ltoes 7.4394
48
root -4.06698 17.9224 19.2724 9.62881 -44.7426 -21.9348
lowerback 7.27231 1.38181 4.5927
upperback -3.88392 2.12712 -2.74482
thorax -7.93228 0.70416 -5.80319
lowerneck -13.8299 -6.10005 1.59414
upperneck -9.25386 -8.40485 1.93028
head -0.632155 -4.29811 0.0566556
rclavicle -5.4467e-014 3.18055e-015
rhumerus 51.2897 -46.2496 -26.0995
rradius 29.8341
rwrist -34.9437
rhand -13.4558 49.4026
rfingers 7.12502
rthumb 12.6538 19.8059
lclavicle -5.4467e-014 3.18055e-015
lhumerus -36.1816 -4.61427 39.2672
lradius 48.6632
lwrist 30.904
lhand 175.894 63.9825
lfingers 7.12502
lthumb -158.348 35.1732
rfemur -0.310005 -3.69846 28.0064
rtibia 48.7859
rfoot 10.3292 1.01243
rtoes 1.94561
lfemur -6.82977 -13.135 -3.54504
ltibia 31.6533
lfoot -5.93544 -18.9434
ltoes 4.75912
49
root -4.03475 17.8538 19.2423 9.72183 -44.8933 -22.1596
lowerback 7.05917 1.37068 4.73339
upperback -3.56459 2.12881 -2.60748
thorax -7.46352 0.728219 -5.71443
lowerneck -13.9716 -6.22468 1.23147
upperneck -9.21431 -8.52457 1.98509
head -0.580938 -4.34678 0.119173
rclavicle -2.62396e-014 2.8625e-014
rhumerus 50.9896 -46.3097 -26.6657
rradius 29.8751
rwrist -35.3332
rhand -13.1086 49.4659
rfingers 7.12502
rthumb 12.9885 19.8902
lclavicle -2.62396e-014 2.8625e-014
lhumerus -35.6926 -4.50587 39.6417
lradius 48.6069
lwrist 31.0084
lhand 173.72 65.0449
lfingers 7.12502
lthumb -160.437 36.0092
rfemur -0.45921 -3.66149 27.9498
rtibia 49.4763
rfoot 9.97522 1.45272
rtoes 8.98709
lfemur -7.19892 -12.9471 -3.38691
ltibia 32.352
lfoot -7.13547 -19.7173
ltoes 5.86566
